# xmcd
#
# Track frame offsets:
#	150
#	12828
#	26956
#	36273
#	45978
#	55803
#	66764
#	78204
#	89343
#	98588
#	109863
#	119613
#	129728
#	140584
#	151892
#	163346
#	174631
#	185628
#	203267
#	211891
#	230308
#	241187
#	255703
#	265705
#	279282
#
# Disc length: 3846 seconds
# Revision: 0
# Processed by: cddbd v1.5.2PL0 Copyright (c) Steve Scherf et al.
# Submitted via: dBpowerAMP V12.0
#
DISCID=530f0419
DTITLE=Tom Annas - Queensland Country Style
DYEAR=1900
DGENRE=Country
TTITLE0=Camooweal
TTITLE1=Memories Come Stealing
TTITLE2=A Picture Of You
TTITLE3=Will The Stars Keep Shining
TTITLE4=I Hear You Calling Me
TTITLE5=Something We Share
TTITLE6=The Fate Of Jenny
TTITLE7=I Have A Secret
TTITLE8=Daddy Please Come Home
TTITLE9=Shearer's Fun
TTITLE10=You're Not There Anymore
TTITLE11=Darling I'm Lonesome Tonight
TTITLE12=I Close The Gate Once More
TTITLE13=When The Rain Tumbles Down In July
TTITLE14=Waiting For You
TTITLE15=Shadows On The Wall
TTITLE16=You Can Never Do Wrong In A Mother's Eyes
TTITLE17=Suvla Bay
TTITLE18=Our Australia
TTITLE19=Cool Water
TTITLE20=When Mother Prayed For Me
TTITLE21=He Took Your Place
TTITLE22=Holding Things Together
TTITLE23=Your Old Love Letters
TTITLE24=Wildwood Flower
EXTD=
EXTT0=
EXTT1=
EXTT2=
EXTT3=
EXTT4=
EXTT5=
EXTT6=
EXTT7=
EXTT8=
EXTT9=
EXTT10=
EXTT11=
EXTT12=
EXTT13=
EXTT14=
EXTT15=
EXTT16=
EXTT17=
EXTT18=
EXTT19=
EXTT20=
EXTT21=
EXTT22=
EXTT23=
EXTT24=
PLAYORDER=
